<?xml version="1.0" encoding="utf-8"?>
<!-- Generator: Adobe Illustrator 21.1.0, SVG Export Plug-In . SVG Version: 6.00 Build 0)  -->
<svg fill="#777777" version="1.1" id="图层_1" xmlns="http://www.w3.org/2000/svg" xmlns:xlink="http://www.w3.org/1999/xlink" x="0px" y="0px"
	 width="16px" height="16px" viewBox="0 0 16 16" style="enable-background:new 0 0 16 16;" xml:space="preserve">
<g>
	<path d="M3.6,1.2C2.9,1.5,2.8,1.7,2.3,3c-0.2,0.8-0.7,1.9-1,2.5C1.3,5.7,1.2,5.9,1.2,5.9c0,0,0.6-0.1,0.9-0.2
		c0.1-0.1,0.3-0.2,0.5-0.4C2.8,5,3,4.8,3.1,4.2c0-0.1,0.1-0.1,0.8-0.1h0.7v0.6c0,0.6-0.1,2.5-0.1,2.8l0,0.2H1.8L1.7,7.8
		C1.5,7.9,1.3,8.3,1.3,8.6l0,0.2l1.6,0l1.6,0l0,0.3c-0.1,1.3-0.8,3-1.8,4.1c-0.3,0.3-1.1,1.1-1.4,1.4C1,14.8,1,14.8,1.1,14.8
		c0.2,0.1,1.1,0,1.8-0.2c0.3-0.1,0.4-0.2,0.6-0.4c0.6-0.6,1.1-1.6,1.5-2.6L5.1,11l0.2,0.2c0.1,0.1,0.3,0.3,0.4,0.4
		c1,1.2,1.2,1.5,1.5,1.8c0.4,0.5,0.5,0.6,0.5,0.6c0.1,0,0.1-0.6,0.1-1c0-0.7,0-0.7-0.8-1.6c-0.7-0.9-1.2-1.3-1.2-1.3
		c0,0-0.2,0.1-0.3,0.3c-0.2,0.1-0.3,0.2-0.3,0.2c0,0,0-0.1,0-0.2C5.3,10.2,5.5,9.4,5.5,9l0-0.2h2.9l0-0.3c0-0.2-0.1-0.4-0.1-0.5
		L8.3,7.7L7,7.7l-1.3,0l0-0.5c0-0.3,0-1.1,0.1-1.7l0-1.3h2.4l0-0.4c0-0.4-0.1-0.6-0.3-0.7C7.8,3,7.3,3,5.7,3H3.6l0.1-0.3
		c0-0.2,0.2-0.6,0.3-0.9c0.1-0.3,0.2-0.6,0.2-0.6C4.1,1.1,3.9,1.1,3.6,1.2z M9.2,2.9c-0.1,0.1,0,10.2,0,10.3c0,0.1,0.1,0.1,0.5,0.1
		h0.5l0.1,0.4c0.1,0.2,0.2,0.5,0.2,0.6c0,0.1,0,0.1,0.1,0.1s0.1-0.1,0.3-0.1c1.7-1.1,1.5-1,2.9-1c0.9,0,1.1,0,1.2-0.1
		c0,0,0-1.4,0-5.2l0-5.2l-2.9,0C9.5,2.9,9.3,2.9,9.2,2.9L9.2,2.9z M13.8,8.1v4.1l-0.6,0l-0.6,0L12,12.6c-0.3,0.2-0.6,0.4-0.7,0.5
		l-0.2,0.1L11,12.9c0-0.1-0.1-0.3-0.1-0.5l-0.1-0.3h-0.4V8.1c0-2.3,0-4.1,0-4.1c0,0,0.8,0,1.7,0l1.7,0L13.8,8.1L13.8,8.1z"/>
</g>
</svg>
