<?xml version="1.0" encoding="utf-8"?>
<!-- Generator: Adobe Illustrator 21.1.0, SVG Export Plug-In . SVG Version: 6.00 Build 0)  -->
<svg fill="#777777" version="1.1" id="图层_1" xmlns="http://www.w3.org/2000/svg" xmlns:xlink="http://www.w3.org/1999/xlink" x="0px" y="0px"
	 width="16px" height="16px" viewBox="0 0 16 16" style="enable-background:new 0 0 16 16;" xml:space="preserve">
<g>
	<path d="M12.5,5h-3C7.6,5,6,6.6,6,8.5C6,9,6.1,9.5,6.3,10h0.1c0.3,0,0.6-0.1,0.9-0.3C7.1,9.4,7,8.9,7,8.5C7,7.1,8.1,6,9.5,6h3
		C13.9,6,15,7.1,15,8.5c0,1.4-1.1,2.5-2.5,2.5h-2.4c-0.2,0.4-0.5,0.7-0.9,1c0.1,0,0.2,0,0.2,0h3c1.9,0,3.5-1.6,3.5-3.5
		C16,6.6,14.4,5,12.5,5z"/>
	<path d="M9.7,7H9.5C9.2,7,8.9,7.1,8.7,7.3C8.9,7.6,9,8,9,8.5C9,9.9,7.9,11,6.5,11h-3C2.1,11,1,9.9,1,8.5C1,7.1,2.1,6,3.5,6h2.3
		C6,5.6,6.3,5.3,6.7,5C6.6,5,6.6,5,6.5,5h-3C1.6,5,0,6.6,0,8.5C0,10.4,1.6,12,3.5,12h3c1.9,0,3.5-1.6,3.5-3.5C10,8,9.9,7.5,9.7,7z"
		/>
</g>
</svg>
