<?xml version="1.0" encoding="utf-8"?>
<!-- Generator: Adobe Illustrator 21.1.0, SVG Export Plug-In . SVG Version: 6.00 Build 0)  -->
<svg fill="#777777" version="1.1" id="图层_1" xmlns="http://www.w3.org/2000/svg" xmlns:xlink="http://www.w3.org/1999/xlink" x="0px" y="0px"
	 width="16px" height="16px" viewBox="0 0 16 16" style="enable-background:new 0 0 16 16;" xml:space="preserve">
<g>
	<path d="M8,2H2v6l8,8l6-6L8,2z M3,7.6V3h4.6l7,7L10,14.6L3,7.6z"/>
	<path d="M6.4,5C5.6,5,4.9,5.7,4.9,6.5S5.6,8,6.4,8s1.5-0.7,1.5-1.5S7.3,5,6.4,5z M6.4,7C6.2,7,5.9,6.8,5.9,6.5S6.2,6,6.4,6
		s0.5,0.2,0.5,0.5S6.7,7,6.4,7z"/>
</g>
</svg>
