<?xml version="1.0" encoding="utf-8"?>
<!-- Generator: Adobe Illustrator 21.1.0, SVG Export Plug-In . SVG Version: 6.00 Build 0)  -->
<svg fill="#777777" version="1.1" id="图层_1" xmlns="http://www.w3.org/2000/svg" xmlns:xlink="http://www.w3.org/1999/xlink" x="0px" y="0px"
	 viewBox="0 0 16 16" style="enable-background:new 0 0 16 16;" xml:space="preserve">
<path d="M14.4,5.2c0,0.1,0,0.3,0,0.4C14.4,10,11.1,15,5,15c-1.9,0-3.6-0.5-5-1.5c0.3,0,0.5,0,0.8,0c1.5,0,2.9-0.5,4.1-1.4
	c-1.4,0-2.6-1-3.1-2.3c0.2,0,0.4,0.1,0.6,0.1c0.3,0,0.6,0,0.9-0.1C1.8,9.5,0.6,8.2,0.6,6.6c0,0,0,0,0,0C1.1,6.8,1.6,7,2.1,7
	C1.2,6.4,0.7,5.4,0.7,4.3c0-0.6,0.2-1.2,0.4-1.7c1.6,2,4,3.3,6.8,3.4C7.8,5.8,7.8,5.5,7.8,5.3C7.8,3.5,9.3,2,11.1,2
	c0.9,0,1.8,0.4,2.4,1c0.7-0.1,1.5-0.4,2.1-0.8c-0.2,0.8-0.8,1.4-1.4,1.8C14.8,4,15.4,3.8,16,3.5C15.6,4.2,15,4.8,14.4,5.2z"/>
</svg>
